HIERARCHY
ROOT Hips
{
    OFFSET 0.000000 0.000000 0.000000
    CHANNELS 6 Xposition Yposition Zposition Zrotation Xrotation Yrotation
    JOINT Spine
    {
        OFFSET -0.000002 7.616785 0.000008
        CHANNELS 3 Zrotation Xrotation Yrotation
        JOINT Spine1
        {
            OFFSET -0.000000 20.671221 0.000009
            CHANNELS 3 Zrotation Xrotation Yrotation
            JOINT Neck
            {
                OFFSET 0.000004 22.542088 -0.000041
                CHANNELS 3 Zrotation Xrotation Yrotation
                JOINT Head
                {
                    OFFSET -0.000014 14.528515 1.902184
                    CHANNELS 3 Zrotation Xrotation Yrotation
                    End Site
                    {
                        OFFSET 0.000000 19.022141 0.000000
                    }
                }
            }
            JOINT LeftShoulder
            {
                OFFSET 3.797832 16.121201 -0.677286
                CHANNELS 3 Zrotation Xrotation Yrotation
                JOINT LeftArm
                {
                    OFFSET 11.576586 -0.000001 0.000010
                    CHANNELS 3 Zrotation Xrotation Yrotation
                    JOINT LeftForeArm
                    {
                        OFFSET 29.906433 0.000010 0.000015
                        CHANNELS 3 Zrotation Xrotation Yrotation
                        JOINT LeftHand
                        {
                            OFFSET 24.318340 0.000004 0.000012
                            CHANNELS 3 Zrotation Xrotation Yrotation
                            JOINT LeftHandThumb1
                            {
                                OFFSET 1.987814 -2.258876 3.162430
                                CHANNELS 3 Zrotation Xrotation Yrotation
                                JOINT LeftHandThumb2
                                {
                                    OFFSET 3.002310 -0.000014 0.000003
                                    CHANNELS 3 Zrotation Xrotation Yrotation
                                    JOINT LeftHandThumb3
                                    {
                                        OFFSET 2.566081 0.000002 0.000001
                                        CHANNELS 3 Zrotation Xrotation Yrotation
                                        End Site
                                        {
                                            OFFSET 2.440626 0.000000 0.000000
                                        }
                                    }
                                }
                            }
                            JOINT LeftHandIndex1
                            {
                                OFFSET 8.131948 0.000007 3.162437
                                CHANNELS 3 Zrotation Xrotation Yrotation
                                JOINT LeftHandIndex2
                                {
                                    OFFSET 4.517748 0.000002 0.000005
                                    CHANNELS 3 Zrotation Xrotation Yrotation
                                    JOINT LeftHandIndex3
                                    {
                                        OFFSET 2.258896 -0.000007 0.000004
                                        CHANNELS 3 Zrotation Xrotation Yrotation
                                        End Site
                                        {
                                            OFFSET 2.148437 0.000000 0.000000
                                        }
                                    }
                                }
                            }
                            JOINT LeftHandMiddle1
                            {
                                OFFSET 8.131986 0.000001 1.048123
                                CHANNELS 3 Zrotation Xrotation Yrotation
                                JOINT LeftHandMiddle2
                                {
                                    OFFSET 4.969536 -0.000004 0.000006
                                    CHANNELS 3 Zrotation Xrotation Yrotation
                                    JOINT LeftHandMiddle3
                                    {
                                        OFFSET 2.710640 0.000004 0.000004
                                        CHANNELS 3 Zrotation Xrotation Yrotation
                                        End Site
                                        {
                                            OFFSET 2.578118 0.000000 0.000000
                                        }
                                    }
                                }
                            }
                            JOINT LeftHandRing1
                            {
                                OFFSET 7.680207 -0.000001 -1.048118
                                CHANNELS 3 Zrotation Xrotation Yrotation
                                JOINT LeftHandRing2
                                {
                                    OFFSET 4.517748 0.000001 0.000006
                                    CHANNELS 3 Zrotation Xrotation Yrotation
                                    JOINT LeftHandRing3
                                    {
                                        OFFSET 2.258897 -0.000007 0.000002
                                        CHANNELS 3 Zrotation Xrotation Yrotation
                                        End Site
                                        {
                                            OFFSET 2.148437 0.000000 0.000000
                                        }
                                    }
                                }
                            }
                            JOINT LeftHandPinky1
                            {
                                OFFSET 7.228409 0.000003 -3.162426
                                CHANNELS 3 Zrotation Xrotation Yrotation
                                JOINT LeftHandPinky2
                                {
                                    OFFSET 3.614217 -0.000006 0.000003
                                    CHANNELS 3 Zrotation Xrotation Yrotation
                                    JOINT LeftHandPinky3
                                    {
                                        OFFSET 1.807108 -0.000003 0.000001
                                        CHANNELS 3 Zrotation Xrotation Yrotation
                                        End Site
                                        {
                                            OFFSET 1.718745 0.000000 0.000000
                                        }
                                    }
                                }
                            }
                        }
                    }
                }
            }
            JOINT RightShoulder
            {
                OFFSET -3.797831 16.121199 -0.677304
                CHANNELS 3 Zrotation Xrotation Yrotation
                JOINT RightArm
                {
                    OFFSET -11.576584 -0.000006 -0.000005
                    CHANNELS 3 Zrotation Xrotation Yrotation
                    JOINT RightForeArm
                    {
                        OFFSET -29.906404 0.000010 0.000003
                        CHANNELS 3 Zrotation Xrotation Yrotation
                        JOINT RightHand
                        {
                            OFFSET -24.318317 -0.000004 0.000009
                            CHANNELS 3 Zrotation Xrotation Yrotation
                            JOINT RightHandThumb1
                            {
                                OFFSET -1.987792 -2.258877 3.162436
                                CHANNELS 3 Zrotation Xrotation Yrotation
                                JOINT RightHandThumb2
                                {
                                    OFFSET -3.002298 -0.000002 0.000000
                                    CHANNELS 3 Zrotation Xrotation Yrotation
                                    JOINT RightHandThumb3
                                    {
                                        OFFSET -2.566110 -0.000011 0.000005
                                        CHANNELS 3 Zrotation Xrotation Yrotation
                                        End Site
                                        {
                                            OFFSET -2.440626 0.000000 0.000000
                                        }
                                    }
                                }
                            }
                            JOINT RightHandIndex1
                            {
                                OFFSET -8.131978 -0.000007 3.162437
                                CHANNELS 3 Zrotation Xrotation Yrotation
                                JOINT RightHandIndex2
                                {
                                    OFFSET -4.517740 0.000002 0.000004
                                    CHANNELS 3 Zrotation Xrotation Yrotation
                                    JOINT RightHandIndex3
                                    {
                                        OFFSET -2.258871 0.000007 0.000004
                                        CHANNELS 3 Zrotation Xrotation Yrotation
                                        End Site
                                        {
                                            OFFSET -2.148437 0.000000 0.000000
                                        }
                                    }
                                }
                            }
                            JOINT RightHandMiddle1
                            {
                                OFFSET -8.131976 -0.000006 1.048126
                                CHANNELS 3 Zrotation Xrotation Yrotation
                                JOINT RightHandMiddle2
                                {
                                    OFFSET -4.969550 -0.000010 -0.000000
                                    CHANNELS 3 Zrotation Xrotation Yrotation
                                    JOINT RightHandMiddle3
                                    {
                                        OFFSET -2.710635 0.000005 0.000005
                                        CHANNELS 3 Zrotation Xrotation Yrotation
                                        End Site
                                        {
                                            OFFSET -2.578118 0.000000 0.000000
                                        }
                                    }
                                }
                            }
                            JOINT RightHandRing1
                            {
                                OFFSET -7.680207 -0.000006 -1.048115
                                CHANNELS 3 Zrotation Xrotation Yrotation
                                JOINT RightHandRing2
                                {
                                    OFFSET -4.517740 0.000002 0.000005
                                    CHANNELS 3 Zrotation Xrotation Yrotation
                                    JOINT RightHandRing3
                                    {
                                        OFFSET -2.258871 0.000006 0.000005
                                        CHANNELS 3 Zrotation Xrotation Yrotation
                                        End Site
                                        {
                                            OFFSET -2.148437 0.000000 0.000000
                                        }
                                    }
                                }
                            }
                            JOINT RightHandPinky1
                            {
                                OFFSET -7.228440 -0.000004 -3.162426
                                CHANNELS 3 Zrotation Xrotation Yrotation
                                JOINT RightHandPinky2
                                {
                                    OFFSET -3.614208 -0.000007 -0.000001
                                    CHANNELS 3 Zrotation Xrotation Yrotation
                                    JOINT RightHandPinky3
                                    {
                                        OFFSET -1.807104 -0.000002 -0.000002
                                        CHANNELS 3 Zrotation Xrotation Yrotation
                                        End Site
                                        {
                                            OFFSET -1.718745 0.000000 0.000000
                                        }
                                    }
                                }
                            }
                        }
                    }
                }
            }
        }
    }
    JOINT LeftUpLeg
    {
        OFFSET 9.511074 0.000001 0.000000
        CHANNELS 3 Zrotation Xrotation Yrotation
        JOINT LeftLeg
        {
            OFFSET 0.000005 -43.875637 -0.000020
            CHANNELS 3 Zrotation Xrotation Yrotation
            JOINT LeftFoot
            {
                OFFSET 0.000005 -35.354160 -0.000016
                CHANNELS 3 Zrotation Xrotation Yrotation
                JOINT LeftToeBase
                {
                    OFFSET 0.000004 -6.182192 14.266604
                    CHANNELS 3 Zrotation Xrotation Yrotation
                    End Site
                    {
                        OFFSET 0.000000 0.000000 3.804428
                    }
                }
            }
        }
    }
    JOINT RightUpLeg
    {
        OFFSET -9.511076 -0.000001 -0.000000
        CHANNELS 3 Zrotation Xrotation Yrotation
        JOINT RightLeg
        {
            OFFSET -0.000004 -43.875637 0.000005
            CHANNELS 3 Zrotation Xrotation Yrotation
            JOINT RightFoot
            {
                OFFSET 0.000001 -35.354160 -0.000018
                CHANNELS 3 Zrotation Xrotation Yrotation
                JOINT RightToeBase
                {
                    OFFSET -0.000003 -6.182193 14.266583
                    CHANNELS 3 Zrotation Xrotation Yrotation
                    End Site
                    {
                        OFFSET 0.000000 0.000000 3.804428
                    }
                }
            }
        }
    }
}
MOTION
Frames:    4
Frame Time:    0.002778
14.936812    92.854256    597.930847    0.637861    1.364803    -169.728241    -0.205424    1.988270    -3.708046    -1.027122    1.987963    -3.679539    2.435300    13.828938    -16.235420    2.435300    13.828938    -16.235416    5.239748    -2.007484    2.778093    -56.642483    31.373295    -46.984833    -118.577736    -29.888180    -110.385300    113.200005    -54.786537    20.475439    47.448215    38.866428    -34.355030    -35.000015    -0.000030    0.000015    -0.000000    0.000000    -0.000000    0.000001    10.000007    0.000002    -0.000000    0.000000    -0.000000    -0.000000    0.000000    -0.000000    -0.000000    0.000000    -0.000000    -0.000000    0.000000    -0.000000    -0.000000    0.000000    -0.000000    -0.000000    0.000000    -0.000000    -0.000000    0.000000    -0.000000    -0.000000    0.000000    -0.000000    0.000005    -10.000002    0.000004    -0.000000    0.000000    -0.000000    -0.000000    0.000000    -0.000000    -3.131116    -1.112609    0.062395    68.112869    12.165606    5.304334    10.077192    20.343702    106.347481    -79.849892    4.190704    -0.911809    -47.448208    38.866428    34.355030    35.000000    -0.000004    0.000009    -0.000000    0.000000    -0.000000    0.000005    10.000001    -0.000000    -0.000000    0.000000    -0.000000    -0.000000    0.000000    -0.000000    -0.000000    0.000000    -0.000000    -0.000000    0.000000    -0.000000    -0.000000    0.000000    -0.000000    -0.000000    0.000000    -0.000000    -0.000000    0.000000    -0.000000    -0.000000    0.000000    -0.000000    -0.000002    -10.000001    0.000002    -0.000000    0.000000    -0.000000    -0.000000    0.000000    -0.000000    14.623949    1.473150    -5.975853    -0.000002    12.900802    0.000000    -11.772279    -13.496102    15.152652    0.000000    0.285307    -0.000002    -8.915733    -12.523355    0.623039    0.000000    30.705122    -0.000001    7.530277    -13.516100    -5.164972    -0.000000    -3.009635    -0.000000    
14.957116    92.858459    597.938843    0.611075    1.345637    -169.631760    -0.205911    1.988129    -3.734540    -1.029554    1.987821    -3.705966    2.411896    13.804517    -16.214111    2.411896    13.804515    -16.214113    5.196436    -2.065256    2.644970    -56.522755    31.012789    -47.274017    -119.057617    -31.398705    -111.635719    113.200020    -54.786572    20.475468    47.448212    38.866432    -34.355034    -34.999996    0.000006    0.000004    -0.000000    0.000000    -0.000000    -0.000004    10.000003    0.000002    -0.000000    0.000000    -0.000000    -0.000000    0.000000    -0.000000    -0.000000    0.000000    -0.000000    -0.000000    0.000000    -0.000000    -0.000000    0.000000    -0.000000    -0.000000    0.000000    -0.000000    -0.000000    0.000000    -0.000000    -0.000000    0.000000    -0.000000    0.000004    -10.000002    0.000002    -0.000000    0.000000    -0.000000    -0.000000    0.000000    -0.000000    -3.280405    -1.240081    0.058213    68.496468    13.558082    5.653161    10.716340    19.101749    106.038734    -83.048386    0.570319    -0.231480    -47.448208    38.866428    34.355030    35.000000    0.000001    0.000003    -0.000000    0.000000    -0.000000    -0.000002    10.000000    0.000002    -0.000000    0.000000    -0.000000    -0.000000    0.000000    -0.000000    -0.000000    0.000000    -0.000000    -0.000000    0.000000    -0.000000    -0.000000    0.000000    -0.000000    -0.000000    0.000000    -0.000000    -0.000000    0.000000    -0.000000    -0.000000    0.000000    -0.000000    0.000001    -10.000007    0.000004    -0.000000    0.000000    -0.000000    -0.000000    0.000000    -0.000000    14.608630    1.339431    -5.953863    -0.000001    13.046103    -0.000000    -11.735726    -13.441325    15.039235    0.000000    0.301025    -0.000002    -8.929478    -12.531782    0.584705    -0.000001    30.728878    0.000002    7.468991    -13.530906    -5.252602    -0.000000    -2.993483    -0.000000    
14.972780    92.863121    597.964355    0.601163    1.359802    -169.534592    -0.209180    1.986305    -3.699193    -1.045901    1.985987    -3.670191    2.469931    13.874662    -16.243441    2.469931    13.874661    -16.243441    5.214839    -2.079213    2.774812    -56.535099    30.593340    -47.572182    -119.167770    -31.774193    -112.270233    113.200027    -54.786552    20.475451    47.448212    38.866428    -34.355038    -34.999996    0.000005    -0.000005    -0.000000    0.000000    -0.000000    -0.000006    10.000001    -0.000003    -0.000000    0.000000    -0.000000    -0.000000    0.000000    -0.000000    -0.000000    0.000000    -0.000000    -0.000000    0.000000    -0.000000    -0.000000    0.000000    -0.000000    -0.000000    0.000000    -0.000000    -0.000000    0.000000    -0.000000    -0.000000    0.000000    -0.000000    -0.000008    -10.000004    -0.000006    -0.000000    0.000000    -0.000000    -0.000000    0.000000    -0.000000    -3.449873    -1.268047    0.001474    68.953545    15.136027    5.999700    11.364980    17.350908    105.834816    -86.662277    -4.088445    0.077380    -47.448208    38.866428    34.355030    35.000004    -0.000002    0.000004    -0.000000    0.000000    -0.000000    0.000004    10.000009    -0.000004    -0.000000    0.000000    -0.000000    -0.000000    0.000000    -0.000000    -0.000000    0.000000    -0.000000    -0.000000    0.000000    -0.000000    -0.000000    0.000000    -0.000000    -0.000000    0.000000    -0.000000    -0.000000    0.000000    -0.000000    -0.000000    0.000000    -0.000000    0.000002    -9.999994    -0.000002    -0.000000    0.000000    -0.000000    -0.000000    0.000000    -0.000000    14.608798    1.219213    -5.957705    0.000001    13.197396    0.000001    -11.690099    -13.391334    14.948955    -0.000000    0.308724    0.000002    -8.940525    -12.559955    0.558181    0.000000    30.819159    -0.000001    7.555135    -13.508607    -5.310782    0.000000    -3.001493    -0.000000    
14.990510    92.866547    597.970093    0.591637    1.348140    -169.483032    -0.212882    1.994115    -3.676882    -1.064410    1.993784    -3.647252    2.506654    13.851867    -16.264301    2.506655    13.851867    -16.264301    5.216537    -2.192833    2.658944    -56.562981    30.269602    -47.662338    -119.301262    -32.186394    -112.752121    113.200027    -54.786537    20.475462    47.448215    38.866428    -34.355049    -35.000008    -0.000010    0.000009    -0.000000    0.000000    -0.000000    0.000005    10.000000    -0.000004    -0.000000    0.000000    -0.000000    -0.000000    0.000000    -0.000000    -0.000000    0.000000    -0.000000    -0.000000    0.000000    -0.000000    -0.000000    0.000000    -0.000000    -0.000000    0.000000    -0.000000    -0.000000    0.000000    -0.000000    -0.000000    0.000000    -0.000000    -0.000001    -9.999993    -0.000007    -0.000000    0.000000    -0.000000    -0.000000    0.000000    -0.000000    -3.294250    -1.693444    0.352237    69.299911    15.802860    6.108303    11.732422    16.601149    105.904655    -88.009605    -6.262773    0.055332    -47.448208    38.866428    34.355030    34.999992    -0.000002    0.000006    -0.000000    0.000000    -0.000000    0.000002    10.000009    -0.000004    -0.000000    0.000000    -0.000000    -0.000000    0.000000    -0.000000    -0.000000    0.000000    -0.000000    -0.000000    0.000000    -0.000000    -0.000000    0.000000    -0.000000    -0.000000    0.000000    -0.000000    -0.000000    0.000000    -0.000000    -0.000000    0.000000    -0.000000    0.000002    -10.000001    -0.000002    -0.000000    0.000000    -0.000000    -0.000000    0.000000    -0.000000    14.609761    1.162205    -6.011575    0.000000    13.230526    -0.000000    -11.699943    -13.350130    14.939611    -0.000000    0.319486    0.000001    -8.939135    -12.565187    0.562376    0.000002    30.825102    -0.000001    7.575089    -13.511539    -5.360623    -0.000000    -3.003500    -0.000000    
